<svg baseProfile="full" height="28" version="1.1" viewBox="0 0 119 28" width="119" xmlns="http://www.w3.org/2000/svg" xmlns:ev="http://www.w3.org/2001/xml-events" xmlns:xlink="http://www.w3.org/1999/xlink"><defs /><g><path d="M7.608457321848081 16.313234142521534 5.108848864526233 11.423649177760375 4.209866875489428 16.839467501957714Q4.1440877055599055 17.3876272513704 3.8151918559122944 17.760375880971026V17.782302270947532Q3.8809710258418164 17.80422866092404 4.122161315583398 17.89193422083007Q4.36335160532498 17.9796397807361 4.560689115113547 17.9796397807361Q4.8676585747846515 17.9796397807361 5.141738449490994 17.85904463586531Q5.415818324197337 17.73844949099452 5.481597494126859 17.73844949099452Q5.635082223962412 17.73844949099452 5.635082223962412 17.870007830853563Q5.635082223962412 18.04541895066562 5.3281127642913075 18.352388410336726Q4.494909945184025 19.25137039937353 3.9906029757243537 19.25137039937353Q3.7932654659357867 19.25137039937353 3.267032106499608 19.07595927956147Q2.6311667971808927 18.878621769772906 2.3680501174628033 18.878621769772906Q2.0172278778386845 18.878621769772906 1.6773688332028192 19.064996084573217Q1.3375097885669538 19.25137039937353 1.2717306186374315 19.25137039937353Q1.1620986687548942 19.25137039937353 1.1620986687548942 19.032106499608457Q1.1620986687548942 18.790916209866875 1.2717306186374313 18.59357870007831Q1.3813625685199686 18.396241190289743 1.6225528582615505 18.13312451057165Q2.148786217697729 17.65074393108849 2.302270947533281 17.453406421299924Q2.455755677368833 17.256068911511356 2.5653876272513703 16.883320281910727Q2.6750195771339076 16.5105716523101 2.8285043069694598 15.480031323414252L4.429130775254502 5.437744714173846Q4.27564604541895 5.437744714173846 3.8809710258418164 5.3938919342208305Q3.7274862960062647 5.371965544244322 3.519185591229444 5.350039154267815Q3.310884886452623 5.328112764291308 3.0258418167580263 5.328112764291308Q1.7979639780736099 5.328112764291308 1.1620986687548942 6.139389193422083Q1.1182458888018794 6.205168363351605 1.0086139389193423 6.369616288175411Q0.8989819890368049 6.534064212999217 0.8112764291307752 6.534064212999217Q0.701644479248238 6.534064212999217 0.701644479248238 6.336726703210649Q0.701644479248238 6.1174628034455765 0.7674236491777603 5.963978073610024Q0.9866875489428347 5.043069694596712 1.7102584181675802 4.53876272513704Q2.4338292873923257 4.034455755677369 3.486296006264683 4.034455755677369L4.209866875489428 4.056382145653876Q4.823805794831636 4.100234925606891 5.196554424432263 4.100234925606891Q5.547376664056382 4.100234925606891 5.942051683633516 4.056382145653876L6.490211433046202 4.034455755677369Q6.051683633516053 5.371965544244322 5.854346123727486 6.68754894283477L5.284259984338292 10.43696162881754L8.244322631166797 6.139389193422083Q9.84494909945184 3.837118245888803 10.831636648394674 2.718872357086923Q11.818324197337509 1.6006264682850428 12.958496476115895 1.0524667188723562Q13.813625685199685 0.6358653093187172 14.756460454189504 0.4823805794831646Q15.699295223179325 0.328895849647612 17.321848081440876 0.1973375097885679Q17.60689115113547 0.17541111981206114 17.935787000783083 0.08770555990603057Q18.176977290524665 0.0 18.22083007047768 0.0Q18.33046202036022 0.0 18.33046202036022 0.13155833985904408Q18.33046202036022 0.46045418950665606 18.001566170712607 0.7454972592012528Q17.672670321064995 1.0305403288958495 16.971025841816758 1.1401722787783868Q16.203602192638996 1.2278778386844174 16.00626468285043 1.249804228660924Q15.194988253719655 1.315583398590448 14.690681284259984 1.4361785434612386Q14.186374314800313 1.5567736883320293 13.550509005481597 1.9514487079091616Q12.826938136256851 2.4119028974158176 11.85121378230227 3.5520751761942053Q10.87548942834769 4.692247454972593 9.428347689898198 6.797180892717305L6.665622552858261 10.831636648394674L9.428347689898198 16.18167580266249Q9.866875489428347 17.03680501174628 10.097102584181675 17.332811276429133Q10.327329678935003 17.62881754111198 10.6123727486296 17.62881754111198Q10.87548942834769 17.62881754111198 11.215348472983555 17.343774471417383Q11.55520751761942 17.05873140172279 11.818324197337509 16.664056382145652Q11.927956147220046 16.5105716523101 12.037588097102583 16.400939702427564Q12.14722004698512 16.291307752545027 12.234925606891151 16.291307752545027Q12.388410336726702 16.291307752545027 12.388410336726702 16.53249804228661Q12.388410336726702 16.927173061863744 11.982772122161315 17.639780736100235Q11.577133907595927 18.352388410336726 11.018010963194989 18.911511354737666Q10.458888018794049 19.470634299138606 9.998433829287391 19.470634299138606Q9.494126859827722 19.470634299138606 8.978856695379797 18.7141738449491Q8.463586530931872 17.957713390759594 7.608457321848081 16.313234142521534Z M14.076742364917775 16.77368833202819Q14.076742364917775 14.99765074393109 14.931871574001566 13.133907595927957Q15.787000783085357 11.270164447924824 17.047768206734535 10.042286609240406Q18.308535630383712 8.81440877055599 19.4487079091621 8.81440877055599Q20.303837118245887 8.81440877055599 20.764291307752544 9.570869224745497Q21.2247454972592 10.327329678935003 21.2247454972592 11.55520751761942Q21.2247454972592 13.199686765857479 20.424432263116678 15.063429913860611Q19.624119028974157 16.927173061863744 18.396241190289743 18.198903680501175Q17.168363351605326 19.470634299138606 15.940485512920908 19.470634299138606Q15.019577133907596 19.470634299138606 14.548159749412687 18.758026624902115Q14.076742364917775 18.04541895066562 14.076742364917775 16.77368833202819ZM19.624119028974157 12.76115896632733Q19.624119028974157 10.261550509005481 18.33046202036022 10.261550509005481Q17.519185591229444 10.261550509005481 16.91620986687549 11.13860610806578Q16.313234142521534 12.015661707126077 15.995301487862177 13.276429130775256Q15.67736883320282 14.537196554424433 15.67736883320282 15.633516053249803Q15.67736883320282 16.68598277212216 15.995301487862177 17.354737666405637Q16.313234142521534 18.023492560689114 17.014878621769775 18.023492560689114Q17.73844949099452 18.023492560689114 18.33046202036022 17.288958496476113Q18.92247454972592 16.554424432263115 19.273296789350038 15.337509788566953Q19.624119028974157 14.12059514487079 19.624119028974157 12.76115896632733Z M25.17149569303054 18.155050900548158Q25.17149569303054 16.598277212216132 25.01801096319499 14.602975724353954Q24.82067345340642 12.344557556773688 24.546593578700076 11.423649177760375Q24.272513703993734 10.502740798747062 23.855912294440095 10.502740798747062Q23.570869224745497 10.502740798747062 23.439310884886453 10.765857478465152Q23.30775254502741 11.028974158183242 23.088488645262334 11.73061863743148Q23.000783085356304 12.103367267032105 22.825371965544246 12.103367267032105Q22.649960845732185 12.103367267032105 22.649960845732185 11.774471417384495Q22.649960845732185 11.226311667971808 22.90211433046202 10.524667188723571Q23.154267815191858 9.823022709475334 23.60375880971026 9.318715740015662Q24.053249804228663 8.81440877055599 24.623335943617853 8.81440877055599Q25.631949882537196 8.81440877055599 26.037588097102585 10.239624119028974Q26.44322631166797 11.664839467501958 26.618637431480032 13.96711041503524Q26.72826938136257 15.41425215348473 26.76115896632733 16.006264682850432Q26.794048551292093 16.598277212216132 26.8159749412686 16.751761942051683Q26.837901331245106 17.12451057165231 27.013312451057168 17.12451057165231Q27.429913860610807 17.12451057165231 28.08770555990603 16.192638997650743Q28.745497259201255 15.260767423649177 29.23884103367267 14.021926389976507Q29.732184808144087 12.783085356303836 29.732184808144087 11.90602975724354Q29.732184808144087 11.511354737666405 29.633516053249807 11.270164447924824Q29.534847298355523 11.028974158183242 29.35943617854346 10.787783868441661Q29.1840250587314 10.546593578700078 29.1840250587314 10.415035238841034Q29.1840250587314 10.086139389193422 29.71025841816758 9.450274079874706Q30.23649177760376 8.81440877055599 30.521534847298355 8.81440877055599Q30.74079874706343 8.81440877055599 30.938136256851998 9.198120595144871Q31.135473766640565 9.58183241973375 31.135473766640565 10.217697729052466Q31.135473766640565 11.664839467501958 30.14878621769773 13.890368050117463Q29.162098668754894 16.11589663273297 27.846515270164446 17.79326546593579Q26.530931871574 19.470634299138606 25.588097102584182 19.470634299138606Q25.390759592795614 19.470634299138606 25.31401722787784 19.371965544244322Q25.237274862960064 19.273296789350038 25.2043852779953 18.944400939702426Q25.17149569303054 18.615505090054814 25.17149569303054 18.155050900548158Z M32.27564604541895 16.62020360219264Q32.27564604541895 14.99765074393109 33.05403288958496 13.14487079091621Q33.832419733750974 11.29209083790133 35.06029757243539 10.05324980422866Q36.28817541111981 8.81440877055599 37.53797963978074 8.81440877055599Q38.678151918559124 8.81440877055599 38.678151918559124 10.195771339075959Q38.678151918559124 11.314017227877837 38.0203602192639 12.388410336726702Q37.362568519968676 13.462803445575567 36.255285826155045 14.285043069694597Q35.14800313234142 15.107282693813627 33.832419733750974 15.545810493343774Q33.832419733750974 16.729835552075176 34.21613155833985 17.256068911511356Q34.59984338292874 17.782302270947532 35.34534064212999 17.782302270947532Q36.134690681284255 17.782302270947532 36.79248238057948 17.277995301487863Q37.4502740798747 16.77368833202819 37.91072826938136 15.896632732967893Q37.976507439310886 15.765074393108849 38.042286609240406 15.67736883320282Q38.10806577916993 15.58966327329679 38.21769772905247 15.58966327329679Q38.39310884886452 15.58966327329679 38.39310884886452 15.852779953014878Q38.39310884886452 16.444792482380578 37.801096319498825 17.321848081440876Q37.20908379013312 18.198903680501175 36.28817541111981 18.834768989819892Q35.3672670321065 19.470634299138606 34.42443226311668 19.470634299138606Q33.437744714173846 19.470634299138606 32.8566953797964 18.7141738449491Q32.27564604541895 17.957713390759594 32.27564604541895 16.62020360219264ZM37.27486296006265 11.29209083790133Q37.27486296006265 10.261550509005481 36.5512920908379 10.261550509005481Q35.9592795614722 10.261550509005481 35.42208300704777 10.897415818324196Q34.884886452623334 11.533281127642912 34.52310101801096 12.476115896632733Q34.16131558339859 13.418950665622553 34.02975724353954 14.29600626468285Q34.16131558339859 14.383711824588879 34.53406421299921 14.383711824588879Q35.10415035238841 14.383711824588879 35.75097885669538 13.978073610023491Q36.39780736100235 13.572435395458104 36.8363351605325 12.870790916209867Q37.27486296006265 12.16914643696163 37.27486296006265 11.29209083790133Z M40.0814408770556 18.04541895066562Q40.0814408770556 17.62881754111198 40.169146436961626 17.05873140172279L41.46280344557557 8.419733750978857Q41.92325763508222 5.437744714173846 42.58104933437744 3.8151918559122944Q43.238841033672664 2.192638997650743 44.15974941268598 1.4690681284259988Q44.68598277212216 1.0524667188723562 45.25606891151135 0.8551292090837901Q45.826155050900546 0.657791699295224 47.010180109631946 0.3727486296006255Q47.55833985904463 0.26311667971808816 47.711824588880184 0.19733750978856612Q47.86530931871574 0.13155833985904408 47.90916209866875 0.13155833985904408Q48.0626468285043 0.13155833985904408 48.0626468285043 0.3069694596711052Q48.0626468285043 0.3946750195771358 47.96397807361002 0.5700861393891952Q47.86530931871574 0.7454972592012545 47.64604541895066 0.9428347689898189Q47.40485512920908 1.1620986687548935 47.18559122944401 1.2388410336726707Q46.96632732967893 1.315583398590448 46.659357870007824 1.3375097885669547Q45.3876272513704 1.4690681284259988 44.8175411119812 2.1268598277212227Q43.74314800313234 3.3547376664056383 43.238841033672664 6.665622552858261L41.63821456538762 16.992952231793264Q41.616288175411114 17.146436961628815 41.616288175411114 17.36570086139389Q41.616288175411114 17.848081440877056 41.901331245105716 17.848081440877056Q42.55912294440093 17.848081440877056 43.43617854346123 15.896632732967893Q43.523884103367266 15.655442443226312 43.67736883320281 15.655442443226312Q43.83085356303837 15.655442443226312 43.83085356303837 15.962411902897415Q43.83085356303837 16.68598277212216 43.31558339859045 17.519185591229444Q42.80031323414252 18.352388410336726 42.09866875489428 18.911511354737666Q41.39702427564604 19.470634299138606 40.87079091620986 19.470634299138606Q40.45418950665622 19.470634299138606 40.26781519185591 19.064996084573217Q40.0814408770556 18.65935787000783 40.0814408770556 18.04541895066562Z M45.321848081440876 17.343774471417383Q45.321848081440876 15.304620203602193 46.209866875489425 13.32028191072827Q47.09788566953797 11.335943617854346 48.61080657791699 10.075176194205168Q50.123727486296005 8.81440877055599 51.877838684416595 8.81440877055599Q52.7768206734534 8.81440877055599 53.434612372748624 9.099451840250588Q53.14956930305403 10.217697729052466 53.039937353171496 10.743931088488646L52.57948316366483 13.111981205951448Q51.96554424432263 15.918559122944401 51.83398590446358 16.992952231793264Q51.812059514487075 17.146436961628815 51.812059514487075 17.36570086139389Q51.812059514487075 17.848081440877056 52.09710258418167 17.848081440877056Q52.44792482380579 17.848081440877056 52.754894283476894 17.398590446358654Q53.061863743147995 16.94909945184025 53.45653876272513 16.11589663273297Q53.478465152701645 16.09397024275646 53.53328112764291 15.984338292873922Q53.58809710258418 15.874706342991386 53.675802662490206 15.874706342991386Q53.80736100234925 15.874706342991386 53.80736100234925 16.137823022709476L53.76350822239624 16.488645262333595Q53.610023492560686 17.21221613155834 53.13860610806577 17.913860610806577Q52.66718872357087 18.615505090054814 52.08613938919342 19.04306969459671Q51.50509005481597 19.470634299138606 51.04463586530932 19.470634299138606Q50.27721221613155 19.470634299138606 50.27721221613155 18.22083007047768Q50.27721221613155 17.73844949099452 50.38684416601409 17.234142521534846L50.75959279561472 15.3265465935787H50.73766640563821Q49.685199686765856 17.168363351605326 48.4902114330462 18.319498825371966Q47.29522317932654 19.470634299138606 46.440093970242756 19.470634299138606Q45.321848081440876 19.470634299138606 45.321848081440876 17.343774471417383ZM51.32967893500391 11.90602975724354 51.680501174628034 10.502740798747062Q51.02270947533281 10.064212999216915 50.29913860610806 10.064212999216915Q49.35630383711824 10.064212999216915 48.577916992952225 11.149569303054033Q47.79953014878621 12.234925606891151 47.36100234925607 13.780736100234925Q46.92247454972592 15.3265465935787 46.92247454972592 16.576350822239625Q46.92247454972592 17.12451057165231 47.04306969459671 17.398590446358654Q47.1636648394675 17.672670321064995 47.4706342991386 17.672670321064995Q48.08457321848081 17.672670321064995 48.884886452623334 16.718872357086923Q49.685199686765856 15.765074393108849 50.375880971025836 14.383711824588879Q51.066562255285824 13.00234925606891 51.32967893500391 11.90602975724354Z  M61.898198903680495 19.09788566953798Q61.898198903680495 18.83476898981989 62.09553641346906 18.60454189506656Q62.29287392325763 18.374314800313233 62.687548942834766 18.089271730618638Q63.191855912294436 17.716523101018012 63.389193422083004 17.398590446358654Q63.58653093187157 17.080657791699295 63.65231010180109 16.642129992169146L64.98981989036804 7.674236491777604Q65.05559906029757 7.148003132341426 65.69146436961628 6.588880187940486Q66.327329678935 6.029757243539546 66.83163664839466 6.029757243539546Q67.07282693813625 6.029757243539546 67.07282693813625 6.1832419733750985Q67.07282693813625 6.2490211433046206 66.85356303837116 6.534064212999217Q66.6342991386061 6.819107282693814 66.52466718872357 7.564604541895067L66.0422866092404 10.853563038371183H67.94988253719654Q69.19968676585748 10.524667188723571 69.96711041503524 9.527016444792483Q70.734534064213 8.529365700861394 70.734534064213 7.433046202036023Q70.734534064213 6.292873923257636 69.8574784651527 5.678935003915427Q68.9804228660924 5.0649960845732185 67.33594361785434 5.0649960845732185Q64.37588097102584 5.0649960845732185 62.577916992952225 7.257635082223963Q62.42443226311667 7.454972592012529 62.30383711824588 7.586530931871574Q62.18324197337509 7.718089271730619 62.073610023492556 7.718089271730619Q61.87627251370399 7.718089271730619 61.87627251370399 7.54267815191856Q61.87627251370399 7.433046202036023 61.94205168363351 7.235708692247455Q62.38057948316366 5.678935003915427 64.05794831636648 4.747063429913861Q65.7353171495693 3.8151918559122944 68.05951448707908 3.8151918559122944Q70.03288958496475 3.8151918559122944 71.19498825371964 4.637431480031323Q72.35708692247454 5.4596711041503525 72.35708692247454 6.928739232576351Q72.35708692247454 8.13469068128426 71.60062646828504 9.241973375097885Q70.84416601409553 10.349256068911512 69.55050900548159 11.050900548159749Q71.98433829287391 12.41033672670321 71.98433829287391 14.800313234142521Q71.98433829287391 16.137823022709476 71.28269381362568 17.146436961628815Q70.58104933437744 18.155050900548158 69.34220830070477 18.703210649960845Q68.1033672670321 19.25137039937353 66.54659357870007 19.25137039937353Q65.77916992952231 19.25137039937353 64.44166014095536 19.054032889584963Q63.56460454189506 18.92247454972592 63.323414252153476 18.92247454972592Q62.86296006264682 18.92247454972592 62.523101018010955 19.086922474549723Q62.18324197337509 19.25137039937353 62.073610023492556 19.25137039937353Q61.898198903680495 19.25137039937353 61.898198903680495 19.09788566953798ZM70.42756460454189 15.282693813625684Q70.42756460454189 14.12059514487079 69.8355520751762 13.254502740798747Q69.24353954581049 12.388410336726704 68.1033672670321 11.90602975724354H65.86687548942834L65.23101018010962 16.26938136256852Q65.1433046202036 16.7956147220047 65.00078308535629 17.11354737666406Q64.858261550509 17.431480031323414 64.5951448707909 17.694596711041502V17.73844949099452Q65.31871574001566 17.935787000783083 66.9193422083007 17.935787000783083Q68.71730618637432 17.935787000783083 69.5724353954581 17.29992169146437Q70.42756460454189 16.664056382145652 70.42756460454189 15.282693813625684Z M73.6945967110415 17.343774471417383Q73.6945967110415 15.304620203602193 74.58261550509005 13.32028191072827Q75.4706342991386 11.335943617854346 76.98355520751761 10.075176194205168Q78.49647611589663 8.81440877055599 80.25058731401722 8.81440877055599Q81.14956930305402 8.81440877055599 81.80736100234925 9.099451840250588Q81.52231793265466 10.217697729052466 81.41268598277212 10.743931088488646L80.95223179326545 13.111981205951448Q80.33829287392325 15.918559122944401 80.20673453406421 16.992952231793264Q80.1848081440877 17.146436961628815 80.1848081440877 17.36570086139389Q80.1848081440877 17.848081440877056 80.46985121378229 17.848081440877056Q80.82067345340641 17.848081440877056 81.12764291307752 17.398590446358654Q81.43461237274862 16.94909945184025 81.82928739232575 16.11589663273297Q81.85121378230227 16.09397024275646 81.90602975724353 15.984338292873922Q81.9608457321848 15.874706342991386 82.04855129209083 15.874706342991386Q82.18010963194988 15.874706342991386 82.18010963194988 16.137823022709476L82.13625685199686 16.488645262333595Q81.98277212216131 17.21221613155834 81.5113547376664 17.913860610806577Q81.03993735317148 18.615505090054814 80.45888801879403 19.04306969459671Q79.87783868441659 19.470634299138606 79.41738449490994 19.470634299138606Q78.64996084573218 19.470634299138606 78.64996084573218 18.22083007047768Q78.64996084573218 17.73844949099452 78.75959279561471 17.234142521534846L79.13234142521534 15.3265465935787H79.11041503523883Q78.05794831636648 17.168363351605326 76.86296006264682 18.319498825371966Q75.66797180892716 19.470634299138606 74.81284259984338 19.470634299138606Q73.6945967110415 19.470634299138606 73.6945967110415 17.343774471417383ZM79.70242756460453 11.90602975724354 80.05324980422866 10.502740798747062Q79.39545810493343 10.064212999216915 78.67188723570868 10.064212999216915Q77.72905246671887 10.064212999216915 76.95066562255286 11.149569303054033Q76.17227877838684 12.234925606891151 75.73375097885669 13.780736100234925Q75.29522317932654 15.3265465935787 75.29522317932654 16.576350822239625Q75.29522317932654 17.12451057165231 75.41581832419733 17.398590446358654Q75.53641346906812 17.672670321064995 75.84338292873923 17.672670321064995Q76.45732184808143 17.672670321064995 77.25763508222396 16.718872357086923Q78.05794831636648 15.765074393108849 78.74862960062646 14.383711824588879Q79.43931088488644 13.00234925606891 79.70242756460453 11.90602975724354Z M83.60532498042286 19.339075959279562Q83.60532498042286 19.25137039937353 83.75880971025842 18.834768989819892Q83.91229444009396 18.41816758026625 83.95614722004697 18.089271730618638L85.35943617854346 9.406421299921691Q86.19263899765073 3.9248238057948317 88.451057165231 1.7102584181675802Q89.15270164447924 1.0305403288958495 89.82145653876272 0.7564604541895061Q90.4902114330462 0.4823805794831628 91.23570869224744 0.3727486296006255Q91.54267815191855 0.3069694596711052 91.80579483163663 0.21926389976507465Q92.06891151135473 0.13155833985904408 92.13469068128425 0.13155833985904408Q92.31010180109631 0.13155833985904408 92.31010180109631 0.3069694596711052Q92.31010180109631 0.5700861393891934 91.89350039154267 0.9428347689898189Q91.65231010180109 1.1401722787783868 91.46593578700077 1.2059514487079088Q91.27956147220047 1.2717306186374309 91.10415035238842 1.2936570086139394Q90.92873923257635 1.315583398590448 90.86296006264682 1.3375097885669547Q90.24902114330462 1.4252153484729853 89.81049334377447 1.6883320281910734Q89.37196554424432 1.9514487079091616 88.93343774471417 2.4776820673453415Q88.01252936570086 3.6178543461237282 87.59592795614722 5.141738449490995Q87.17932654659357 6.665622552858261 86.87235708692246 8.880187940485513L86.76272513703994 9.647611589663272L86.12685982772122 13.725920125293657H86.14878621769772L86.6750195771339 12.826938136256853Q87.99060297572434 10.524667188723571 88.97729052466718 9.669537979639781Q89.96397807361002 8.81440877055599 90.88488645262333 8.81440877055599Q91.45497259201252 8.81440877055599 91.79483163664838 9.066562255285827Q92.13469068128425 9.318715740015662 92.13469068128425 9.735317149569303Q92.13469068128425 10.064212999216915 91.97024275646045 10.393108848864525Q91.80579483163665 10.722004698512137 91.65231010180109 10.722004698512137Q91.60845732184808 10.722004698512137 91.56460454189506 10.678151918559124Q91.52075176194205 10.634299138606108 91.47689898198902 10.6123727486296Q91.23570869224744 10.349256068911512 91.01644479248237 10.228660924040721Q90.79718089271731 10.10806577916993 90.53406421299921 10.10806577916993Q89.85434612372748 10.10806577916993 89.20751761942051 10.732967893500392Q88.56068911511355 11.357870007830854 87.77133907595928 12.563821456538761L87.04776820673453 13.660140955364135Q87.92482380579483 15.458104933437745 88.72513703993735 16.631166797180892Q89.52545027407987 17.80422866092404 89.96397807361002 17.80422866092404Q90.33672670321064 17.80422866092404 91.12607674236492 16.68598277212216Q91.30148786217697 16.488645262333595 91.3672670321065 16.488645262333595Q91.52075176194205 16.488645262333595 91.52075176194205 16.729835552075176L91.47689898198902 16.992952231793264Q91.41111981205951 17.36570086139389 91.04933437744714 17.968676585747843Q90.68754894283477 18.5716523101018 90.23805794831637 19.021143304620203Q89.78856695379795 19.470634299138606 89.39389193422082 19.470634299138606Q88.93343774471417 19.470634299138606 88.40720438527799 18.72513703993735Q87.88097102584182 17.9796397807361 86.89428347689898 16.203602192638996L86.23649177760375 14.953797963978072Q86.14878621769772 15.129209083790133 85.97337509788565 15.458104933437745Q85.7979639780736 15.787000783085356 85.7979639780736 15.896632732967893L85.46906812842599 17.870007830853563Q85.38136256851996 18.440093970242756 84.81127642913077 18.955364134690683Q84.24119028974158 19.470634299138606 83.75880971025842 19.470634299138606Q83.60532498042286 19.470634299138606 83.60532498042286 19.339075959279562Z M93.4283476898982 16.62020360219264Q93.4283476898982 14.99765074393109 94.20673453406422 13.14487079091621Q94.98512137823023 11.29209083790133 96.21299921691465 10.05324980422866Q97.44087705559906 8.81440877055599 98.69068128425998 8.81440877055599Q99.83085356303837 8.81440877055599 99.83085356303837 10.195771339075959Q99.83085356303837 11.314017227877837 99.17306186374316 12.388410336726702Q98.51527016444793 13.462803445575567 97.40798747063431 14.285043069694597Q96.30070477682068 15.107282693813627 94.98512137823023 15.545810493343774Q94.98512137823023 16.729835552075176 95.3688332028191 17.256068911511356Q95.75254502740799 17.782302270947532 96.49804228660925 17.782302270947532Q97.2873923257635 17.782302270947532 97.94518402505872 17.277995301487863Q98.60297572435395 16.77368833202819 99.06342991386062 15.896632732967893Q99.12920908379013 15.765074393108849 99.19498825371966 15.67736883320282Q99.26076742364918 15.58966327329679 99.37039937353171 15.58966327329679Q99.54581049334378 15.58966327329679 99.54581049334378 15.852779953014878Q99.54581049334378 16.444792482380578 98.95379796397808 17.321848081440876Q98.36178543461237 18.198903680501175 97.44087705559906 18.834768989819892Q96.51996867658575 19.470634299138606 95.57713390759594 19.470634299138606Q94.5904463586531 19.470634299138606 94.00939702427564 18.7141738449491Q93.4283476898982 17.957713390759594 93.4283476898982 16.62020360219264ZM98.4275646045419 11.29209083790133Q98.4275646045419 10.261550509005481 97.70399373531716 10.261550509005481Q97.11198120595145 10.261550509005481 96.57478465152701 10.897415818324196Q96.03758809710259 11.533281127642912 95.67580266249021 12.476115896632733Q95.31401722787784 13.418950665622553 95.1824588880188 14.29600626468285Q95.31401722787784 14.383711824588879 95.68676585747846 14.383711824588879Q96.25685199686765 14.383711824588879 96.90368050117462 13.978073610023491Q97.5505090054816 13.572435395458104 97.98903680501175 12.870790916209867Q98.4275646045419 12.16914643696163 98.4275646045419 11.29209083790133Z M101.78230227094753 19.36100234925607Q101.78230227094753 19.295223179326545 101.91386061080658 19.075959279561474Q102.04541895066562 18.8566953797964 102.11119812059513 18.462020360219263Q102.19890368050116 18.001566170712607 102.26468285043069 17.61785434612373Q102.33046202036022 17.234142521534846 102.39624119028973 16.905246671887234Q102.94440093970242 13.901331245105716 103.13077525450274 12.70634299138606Q103.31714956930304 11.511354737666405 103.29522317932654 10.96319498825372Q103.29522317932654 10.678151918559124 103.25137039937353 10.54659357870008Q103.20751761942051 10.415035238841034 103.05403288958496 10.415035238841034Q102.85669537979639 10.415035238841034 102.54972592012528 10.743931088488644Q102.24275646045417 11.072826938136256 101.9796397807361 11.511354737666405Q101.87000783085355 11.708692247454973 101.78230227094753 11.85121378230227Q101.6945967110415 11.993735317149568 101.63978073610022 12.059514487079092Q101.58496476115896 12.125293657008614 101.51918559122943 12.125293657008614Q101.4314800313234 12.125293657008614 101.38762725137039 12.059514487079092Q101.34377447141738 11.993735317149568 101.34377447141738 11.88410336726703Q101.34377447141738 11.467501957713392 101.81519185591229 10.722004698512137Q102.2866092404072 9.976507439310884 102.93343774471417 9.395458104933438Q103.58026624902114 8.81440877055599 104.08457321848081 8.81440877055599Q104.50117462803445 8.81440877055599 104.66562255285825 9.143304620203601Q104.83007047768206 9.472200469851213 104.83007047768206 10.173844949099452Q104.83007047768206 11.13860610806578 104.41346906812842 12.783085356303836H104.45732184808143Q106.54032889584964 8.81440877055599 108.31636648394674 8.81440877055599Q108.7768206734534 8.81440877055599 109.02897415818323 9.066562255285827Q109.28112764291306 9.318715740015662 109.28112764291306 9.779169929522318Q109.28112764291306 10.261550509005481 109.07282693813625 10.765857478465152Q108.86452623335943 11.270164447924824 108.56851996867658 11.599060297572436Q108.27251370399372 11.927956147220048 108.03132341425214 11.927956147220048Q107.87783868441659 11.927956147220048 107.9216914643696 11.73061863743148Q107.98747063429913 11.423649177760375 107.98747063429913 11.248238057948317Q107.98747063429913 10.722004698512137 107.41738449490994 10.722004698512137Q106.73766640563821 10.722004698512137 106.05794831636648 11.511354737666405Q105.37823022709475 12.300704776820673 104.86296006264682 13.44087705559906Q104.3476898981989 14.581049334377447 104.15035238841033 15.523884103367266Q103.88723570869224 16.53249804228661 103.82145653876272 17.62881754111198Q103.7776037588097 18.04541895066562 103.43774471417385 18.472983555207517Q103.09788566953797 18.900548159749412 102.65935787000782 19.185591229444007Q102.22083007047767 19.470634299138606 101.9796397807361 19.470634299138606Q101.89193422083007 19.470634299138606 101.8371182458888 19.437744714173846Q101.78230227094753 19.404855129209082 101.78230227094753 19.36100234925607Z M107.9216914643696 24.842599843382928Q107.9216914643696 24.119028974158184 108.1848081440877 23.691464369616288Q108.44792482380578 23.26389976507439 108.75489428347689 23.11041503523884Q109.061863743148 22.95693030540329 109.21534847298355 22.95693030540329Q109.32498042286608 22.95693030540329 109.32498042286608 23.17619420516836Q109.32498042286608 26.596711041503525 111.51761942051682 26.596711041503525Q113.07439310884885 26.596711041503525 113.95144870790915 24.73296789350039Q114.28034455755676 24.009397024275646 114.56538762725135 22.913077525450277Q114.85043069694595 21.816758026624903 115.33281127642911 19.492560689115113Q115.53014878621768 18.549725920125294 115.5520751761942 18.41816758026625L116.20986687548941 15.392325763508222H116.18794048551291Q115.66170712607673 16.488645262333595 114.93813625685199 17.42051683633516Q114.21456538762725 18.352388410336726 113.512920908379 18.911511354737666Q112.81127642913076 19.470634299138606 112.37274862960061 19.470634299138606Q111.89036805011744 19.470634299138606 111.70399373531714 18.73610023492561Q111.51761942051682 18.001566170712607 111.53954581049334 16.94909945184025L111.71495693030539 11.467501957713392Q111.7368833202819 11.29209083790133 111.7368833202819 10.985121378230227Q111.7368833202819 10.634299138606108 111.66014095536413 10.458888018794049Q111.58339859044635 10.28347689898199 111.36413469068127 10.28347689898199Q111.07909162098667 10.28347689898199 110.72826938136257 10.656225528582617Q110.37744714173844 11.028974158183242 110.11433046202035 11.620986687548942Q109.98277212216131 11.993735317149568 109.82928739232575 11.993735317149568Q109.6538762725137 11.993735317149568 109.6538762725137 11.73061863743148Q109.6538762725137 11.182458888018793 110.04855129209082 10.480814408770556Q110.44322631166796 9.779169929522318 111.04620203602191 9.296789350039155Q111.64917776037586 8.81440877055599 112.19733750978855 8.81440877055599Q112.81127642913076 8.81440877055599 113.03054032889582 9.4283476898982Q113.2498042286609 10.042286609240406 113.2498042286609 11.094753328112764L113.2278778386844 11.796397807361002L113.03054032889584 15.41425215348473L113.00861393891932 16.137823022709476Q113.00861393891932 16.839467501957714 113.1072826938136 17.146436961628815Q113.20595144870789 17.45340642129992 113.46906812842599 17.45340642129992Q113.95144870790915 17.45340642129992 114.60924040720437 16.53249804228661Q115.2670321064996 15.611589663273296 115.8590446358653 14.274079874706342Q116.45105716523099 12.936570086139389 116.7361002349256 11.774471417384495L117.06499608457321 10.43696162881754Q117.26233359436178 9.625685199686766 117.82145653876272 9.220046985121378Q118.38057948316366 8.81440877055599 118.8410336726703 8.81440877055599Q119.01644479248237 8.81440877055599 119.01644479248237 8.924040720438528Q119.01644479248237 9.033672670321065 118.9397024275646 9.231010180109632Q118.86296006264682 9.4283476898982 118.8191072826938 9.516053249804228Q118.64369616288174 9.976507439310884 118.5121378230227 10.513703993735316Q118.38057948316366 11.050900548159749 118.2490211433046 11.796397807361002L117.08692247454971 18.023492560689114L116.86765857478464 19.273296789350038Q116.60454189506655 20.80814408770556 116.38527799530146 21.696162881754113Q116.1660140955364 22.58418167580266 115.77133907595928 23.450274079874706Q115.37666405638214 24.31636648394675 114.6530931871574 25.237274862960064Q113.66640563821456 26.552858261550508 112.59201252936569 27.276429130775256Q111.51761942051682 28.0 110.53093187157398 28.0Q109.6758026624902 28.0 109.0837901331245 27.52858261550509Q108.49177760375879 27.05716523101018 108.2067345340642 26.333594361785437Q107.9216914643696 25.61002349256069 107.9216914643696 24.842599843382928Z " fill="rgb(0,0,0)" transform="translate(-0.701644479248238, 0)" /></g></svg>